<?xml version="1.0" standalone="no"?>
<!DOCTYPE svg PUBLIC "-//W3C//DTD SVG 20010904//EN"
 "http://www.w3.org/TR/2001/REC-SVG-20010904/DTD/svg10.dtd">
<svg version="1.0" xmlns="http://www.w3.org/2000/svg"
 width="360.000000pt" height="360.000000pt" viewBox="0 0 360.000000 360.000000"
 preserveAspectRatio="xMidYMid meet">
<metadata>
Created by potrace 1.14, written by Peter Selinger 2001-2017
</metadata>
<g transform="translate(0.000000,360.000000) scale(0.100000,-0.100000)"
fill="#000000" stroke="none">
<path d="M1310 2398 c-66 -35 -163 -159 -174 -223 -1 -5 -7 -26 -13 -45 -22
-65 -24 -107 -7 -114 27 -10 32 -7 38 27 19 103 22 110 53 174 39 80 125 153
180 153 10 0 5 -10 -17 -32 -63 -65 -115 -181 -126 -282 -6 -56 2 -71 30 -60
10 4 16 18 16 38 0 67 61 217 106 262 11 11 33 29 50 41 l31 22 34 -24 c53
-35 94 -97 129 -192 9 -25 18 -33 36 -33 22 0 24 3 18 28 -14 54 -67 154 -103
193 -40 42 -32 50 24 23 44 -21 87 -60 117 -109 14 -22 25 -42 26 -45 0 -3 6
-18 12 -35 6 -16 13 -36 15 -42 2 -7 15 -13 29 -13 30 0 27 15 -19 115 -39 84
-83 134 -148 168 -44 24 -57 26 -175 25 -104 -1 -133 -5 -162 -20z"/>
<path d="M931 2078 c-56 -149 -83 -275 -83 -393 -1 -115 3 -145 31 -235 20
-63 71 -157 119 -216 28 -35 26 -30 -21 66 -20 41 -44 109 -52 150 -16 75 -21
219 -10 295 8 54 44 208 53 222 6 9 22 5 60 -14 75 -37 153 -52 246 -49 81 3
133 18 318 89 119 47 265 53 359 17 29 -11 54 -18 56 -16 8 8 -99 68 -148 82
-106 32 -217 18 -374 -47 -184 -76 -338 -71 -465 13 -25 17 -49 37 -53 44 -12
21 -26 17 -36 -8z"/>
<path d="M996 1831 c-25 -84 -7 -199 39 -257 l23 -29 -8 50 c-7 43 -5 164 2
170 2 2 26 5 53 8 59 6 114 27 134 51 13 15 12 16 -15 6 -38 -15 -107 -4 -166
25 l-48 24 -14 -48z"/>
<path d="M1245 1720 c-32 -12 -45 -34 -47 -77 -2 -50 6 -63 65 -108 35 -27 47
-43 45 -58 -5 -34 -28 -33 -28 2 0 20 -5 31 -15 32 -56 4 -60 3 -63 -20 -10
-66 37 -107 111 -97 59 8 72 26 71 93 0 49 -3 58 -30 80 -73 59 -84 71 -78 87
9 23 22 20 26 -6 2 -19 10 -24 41 -26 36 -3 37 -3 37 32 0 27 -6 40 -25 52
-28 18 -81 25 -110 14z"/>
<path d="M1410 1561 l0 -159 40 -4 40 -4 0 108 c0 59 4 109 9 112 13 9 17 -20
16 -121 l-1 -93 33 0 c18 0 36 0 41 0 9 0 11 212 1 238 -9 24 -52 36 -79 22
-18 -10 -20 -7 -20 25 0 34 -1 35 -40 35 l-40 0 0 -159z"/>
<path d="M2250 1700 c0 -20 5 -22 35 -22 37 0 45 3 45 22 0 17 -7 20 -40 20
-33 0 -40 -3 -40 -20z"/>
<path d="M1677 1660 c-16 -5 -35 -17 -43 -27 -16 -21 -19 -158 -5 -196 12 -30
63 -49 109 -41 51 10 69 46 67 136 -2 82 -15 115 -51 128 -29 11 -39 11 -77 0z
m45 -117 c0 -95 -1 -103 -11 -103 -10 0 -15 156 -5 171 11 19 16 1 16 -68z"/>
<path d="M1835 1662 c-3 -3 -5 -72 -5 -154 l0 -148 40 0 c36 0 40 3 40 25 0
25 14 33 25 15 7 -12 53 -6 68 9 10 10 17 178 9 219 -5 28 -45 46 -70 33 -10
-5 -36 -6 -59 -1 -24 4 -45 5 -48 2z m97 -108 c1 -94 -1 -114 -12 -114 -11 0
-14 162 -3 173 11 12 14 1 15 -59z"/>
<path d="M2051 1662 c-7 -2 -11 -54 -11 -153 l0 -149 40 0 c36 0 40 3 40 25 0
25 14 33 25 15 3 -5 16 -8 28 -6 12 3 25 5 28 5 20 3 29 95 20 227 -2 30 -42
49 -71 34 -12 -7 -25 -8 -29 -4 -6 9 -50 13 -70 6z m92 -129 c0 -43 -4 -80 -9
-83 -10 -6 -18 134 -9 158 11 29 18 1 18 -75z"/>
<path d="M2364 1661 c-2 -2 -4 -62 -4 -132 0 -138 1 -141 58 -131 20 4 22 10
23 81 2 118 3 126 14 128 6 2 10 -36 9 -100 0 -56 3 -104 8 -108 4 -3 23 -3
42 -1 l34 4 -2 120 c-1 105 -4 122 -20 134 -20 14 -42 14 -65 0 -7 -5 -16 -5
-20 0 -6 9 -69 13 -77 5z"/>
<path d="M2590 1650 c-17 -17 -20 -34 -20 -104 0 -97 12 -119 64 -115 33 3 41
-3 32 -24 -5 -9 -7 -9 -12 1 -3 6 -23 12 -45 12 -38 0 -48 -11 -31 -36 24 -37
120 -41 154 -6 20 19 22 32 23 152 0 124 0 130 -20 131 -11 1 -24 1 -28 0 -21
-3 -54 -2 -75 3 -15 3 -30 -2 -42 -14z m82 -82 c0 -75 -2 -88 -12 -88 -11 0
-14 123 -3 133 11 12 15 0 15 -45z"/>
<path d="M2250 1531 c0 -86 4 -131 11 -133 6 -2 25 -2 43 0 l31 4 -2 126 -1
127 -41 3 -41 3 0 -130z"/>
<path d="M1570 1295 c-10 -11 -10 -21 -2 -38 10 -21 10 -20 9 8 -2 21 3 30 16
33 26 5 34 -28 11 -46 -10 -8 -13 -12 -5 -10 25 7 36 35 22 52 -17 20 -35 20
-51 1z"/>
<path d="M1684 1296 c-3 -8 4 -25 16 -38 17 -18 20 -19 14 -4 -4 11 -2 21 6
26 8 5 9 9 1 14 -6 4 -11 2 -11 -3 0 -6 -5 -11 -11 -11 -6 0 -9 7 -5 15 3 8 3
15 0 15 -2 0 -7 -7 -10 -14z"/>
<path d="M1778 1285 c-6 -28 4 -44 26 -45 6 0 1 7 -10 15 -19 14 -19 14 1 15
12 0 16 3 9 8 -6 4 -13 14 -16 22 -3 9 -7 3 -10 -15z"/>
<path d="M2120 1278 c0 -23 3 -29 9 -19 8 12 4 51 -5 51 -2 0 -4 -15 -4 -32z"/>
<path d="M2147 1289 c4 -13 8 -18 11 -10 2 7 -1 18 -6 23 -8 8 -9 4 -5 -13z"/>
<path d="M2215 1301 c-3 -5 2 -16 10 -24 20 -21 19 -31 -2 -22 -15 5 -16 4 -5
-6 9 -10 15 -10 24 -1 9 9 8 16 -5 30 -9 10 -14 22 -10 25 3 4 4 7 0 7 -3 0
-8 -4 -12 -9z"/>
<path d="M1870 1284 c0 -8 5 -12 10 -9 6 4 8 11 5 16 -9 14 -15 11 -15 -7z"/>
<path d="M1907 1278 c-10 -11 -16 -23 -12 -26 4 -4 11 1 16 11 6 9 14 15 20
12 5 -3 6 1 3 9 -3 9 -7 16 -8 15 0 0 -9 -10 -19 -21z"/>
<path d="M2301 1284 c0 -11 3 -14 6 -6 3 7 2 16 -1 19 -3 4 -6 -2 -5 -13z"/>
<path d="M2407 1286 c-4 -10 -3 -15 2 -12 5 3 11 -1 15 -9 3 -8 11 -15 18 -15
9 0 9 3 2 8 -6 4 -15 15 -21 26 -9 16 -11 17 -16 2z"/>
<path d="M2449 1283 c-8 -9 -9 -14 -2 -10 6 4 14 1 16 -5 3 -7 6 -3 6 10 1 26
-2 27 -20 5z"/>
<path d="M1477 1276 c-6 -15 11 -36 28 -36 5 0 2 5 -7 11 -10 5 -15 16 -12 24
4 8 4 15 1 15 -3 0 -7 -6 -10 -14z"/>
<path d="M2056 1253 c-6 -14 -5 -15 5 -6 7 7 10 15 7 18 -3 3 -9 -2 -12 -12z"/>
<path d="M2307 1248 c2 -5 10 -8 18 -8 8 0 16 3 18 8 3 4 -5 7 -18 7 -13 0
-21 -3 -18 -7z"/>
</g>
</svg>
